<svg width="480" height="480" viewBox="0 0 480 480" fill="none" xmlns="http://www.w3.org/2000/svg">
<g clip-path="url(#clip0)">
<path d="M449.127 239.004H459.086H479.004" stroke="black" stroke-opacity="0.62" stroke-width="2" stroke-miterlimit="10" stroke-linecap="round"/>
<path d="M0.99585 239.004H20.9137H30.8726" stroke="black" stroke-opacity="0.62" stroke-width="2" stroke-miterlimit="10" stroke-linecap="round"/>
<path d="M477.609 213.978L457.802 216.06" stroke="#4D4D4D" stroke-opacity="0.33" stroke-miterlimit="10"/>
<path d="M21.9884 261.859L2.17096 263.95" stroke="#4D4D4D" stroke-opacity="0.33" stroke-miterlimit="10"/>
<path d="M473.616 189.241L454.127 193.384" stroke="#4D4D4D" stroke-opacity="0.33" stroke-miterlimit="10"/>
<path d="M25.4241 284.505L5.94522 288.647" stroke="#4D4D4D" stroke-opacity="0.33" stroke-miterlimit="10"/>
<path d="M467.033 165.082L448.082 171.236" stroke="#4D4D4D" stroke-opacity="0.33" stroke-miterlimit="10"/>
<path d="M31.2398 306.672L12.2888 312.827" stroke="#4D4D4D" stroke-opacity="0.33" stroke-miterlimit="10"/>
<path d="M457.95 141.749L439.756 149.856" stroke="#4D4D4D" stroke-opacity="0.33" stroke-miterlimit="10"/>
<path d="M39.3461 328.113L21.1419 336.219" stroke="#4D4D4D" stroke-opacity="0.33" stroke-miterlimit="10"/>
<path d="M446.468 119.512L429.209 129.481" stroke="black" stroke-miterlimit="10"/>
<path d="M49.6744 348.598L32.4163 358.556" stroke="black" stroke-miterlimit="10"/>
<path d="M432.734 98.6191L416.611 110.33" stroke="#4D4D4D" stroke-opacity="0.33" stroke-miterlimit="10"/>
<path d="M62.1032 367.897L45.9803 379.608" stroke="#4D4D4D" stroke-opacity="0.33" stroke-miterlimit="10"/>
<path d="M416.91 79.2697L402.101 92.6041" stroke="#4D4D4D" stroke-opacity="0.33" stroke-miterlimit="10"/>
<path d="M76.464 385.792L61.6557 399.127" stroke="#4D4D4D" stroke-opacity="0.33" stroke-miterlimit="10"/>
<path d="M399.163 61.683L385.828 76.4913" stroke="#4D4D4D" stroke-opacity="0.33" stroke-miterlimit="10"/>
<path d="M92.6274 402.125L79.2929 416.933" stroke="#4D4D4D" stroke-opacity="0.33" stroke-miterlimit="10"/>
<path d="M379.703 46.0481L367.992 62.1709" stroke="#4D4D4D" stroke-opacity="0.33" stroke-miterlimit="10"/>
<path d="M110.414 416.664L98.6929 432.787" stroke="#4D4D4D" stroke-opacity="0.33" stroke-miterlimit="10"/>
<path d="M358.72 32.5145L348.751 49.7726" stroke="black" stroke-miterlimit="10"/>
<path d="M129.635 429.301L119.666 446.559" stroke="black" stroke-miterlimit="10"/>
<path d="M336.452 21.2515L328.346 39.4556" stroke="#4D4D4D" stroke-opacity="0.33" stroke-miterlimit="10"/>
<path d="M150.081 439.847L141.984 458.042" stroke="#4D4D4D" stroke-opacity="0.33" stroke-miterlimit="10"/>
<path d="M313.128 12.3884L306.974 31.3395" stroke="#4D4D4D" stroke-opacity="0.33" stroke-miterlimit="10"/>
<path d="M171.542 448.173L165.378 467.124" stroke="#4D4D4D" stroke-opacity="0.33" stroke-miterlimit="10"/>
<path d="M289.028 6.03491L284.885 25.5138" stroke="#4D4D4D" stroke-opacity="0.33" stroke-miterlimit="10"/>
<path d="M193.761 454.198L189.618 473.686" stroke="#4D4D4D" stroke-opacity="0.33" stroke-miterlimit="10"/>
<path d="M264.389 2.23071L262.308 22.0382" stroke="#4D4D4D" stroke-opacity="0.33" stroke-miterlimit="10"/>
<path d="M216.507 457.832L214.416 477.65" stroke="#4D4D4D" stroke-opacity="0.33" stroke-miterlimit="10"/>
<path d="M239.502 30.8714V20.9129V0.99585" stroke="black" stroke-opacity="0.62" stroke-width="2" stroke-miterlimit="10" stroke-linecap="round"/>
<path d="M239.502 479.004V459.087V449.129" stroke="black" stroke-opacity="0.62" stroke-width="2" stroke-miterlimit="10" stroke-linecap="round"/>
<path d="M216.706 22.1378L214.625 2.33032" stroke="#4D4D4D" stroke-opacity="0.33" stroke-miterlimit="10"/>
<path d="M264.598 477.749L262.517 457.942" stroke="#4D4D4D" stroke-opacity="0.33" stroke-miterlimit="10"/>
<path d="M194.159 25.7128L190.026 6.23401" stroke="#4D4D4D" stroke-opacity="0.33" stroke-miterlimit="10"/>
<path d="M289.426 473.885L285.293 454.397" stroke="#4D4D4D" stroke-opacity="0.33" stroke-miterlimit="10"/>
<path d="M172.12 31.6282L165.965 12.6771" stroke="#4D4D4D" stroke-opacity="0.33" stroke-miterlimit="10"/>
<path d="M313.716 467.422L307.561 448.471" stroke="#4D4D4D" stroke-opacity="0.33" stroke-miterlimit="10"/>
<path d="M150.827 39.824L142.721 21.6199" stroke="#4D4D4D" stroke-opacity="0.33" stroke-miterlimit="10"/>
<path d="M337.189 458.42L329.083 440.216" stroke="#4D4D4D" stroke-opacity="0.33" stroke-miterlimit="10"/>
<path d="M130.491 50.2008L120.533 32.9427" stroke="black" stroke-miterlimit="10"/>
<path d="M359.586 446.988L349.618 429.729" stroke="black" stroke-miterlimit="10"/>
<path d="M111.36 62.6391L99.639 46.5162" stroke="#4D4D4D" stroke-opacity="0.33" stroke-miterlimit="10"/>
<path d="M380.649 433.265L368.938 417.142" stroke="#4D4D4D" stroke-opacity="0.33" stroke-miterlimit="10"/>
<path d="M93.6233 76.9892L80.2888 62.1809" stroke="#4D4D4D" stroke-opacity="0.33" stroke-miterlimit="10"/>
<path d="M400.149 417.421L386.824 402.612" stroke="#4D4D4D" stroke-opacity="0.33" stroke-miterlimit="10"/>
<path d="M77.4499 93.102L62.6416 79.7676" stroke="#4D4D4D" stroke-opacity="0.33" stroke-miterlimit="10"/>
<path d="M417.906 399.625L403.097 386.291" stroke="#4D4D4D" stroke-opacity="0.33" stroke-miterlimit="10"/>
<path d="M63.0493 110.798L46.9165 99.0872" stroke="#4D4D4D" stroke-opacity="0.33" stroke-miterlimit="10"/>
<path d="M433.68 380.086L417.558 368.365" stroke="#4D4D4D" stroke-opacity="0.33" stroke-miterlimit="10"/>
<path d="M50.5408 129.909L33.2728 119.95" stroke="black" stroke-miterlimit="10"/>
<path d="M447.344 358.994L430.076 349.026" stroke="black" stroke-miterlimit="10"/>
<path d="M40.083 150.224L21.8788 142.128" stroke="#4D4D4D" stroke-opacity="0.33" stroke-miterlimit="10"/>
<path d="M458.697 336.587L440.493 328.481" stroke="#4D4D4D" stroke-opacity="0.33" stroke-miterlimit="10"/>
<path d="M31.8174 171.525L12.8664 165.371" stroke="#4D4D4D" stroke-opacity="0.33" stroke-miterlimit="10"/>
<path d="M467.62 313.115L448.669 306.961" stroke="#4D4D4D" stroke-opacity="0.33" stroke-miterlimit="10"/>
<path d="M25.8224 193.583L6.34357 189.441" stroke="#4D4D4D" stroke-opacity="0.33" stroke-miterlimit="10"/>
<path d="M474.014 288.846L454.525 284.714" stroke="#4D4D4D" stroke-opacity="0.33" stroke-miterlimit="10"/>
<path d="M22.1876 216.169L2.38008 214.088" stroke="#4D4D4D" stroke-opacity="0.33" stroke-miterlimit="10"/>
<path d="M477.818 264.05L458.001 261.969" stroke="#4D4D4D" stroke-opacity="0.33" stroke-miterlimit="10"/>
</g>
<defs>
<clipPath id="clip0">
<rect width="480" height="480" fill="white"/>
</clipPath>
</defs>
</svg>
